<svg xmlns="http://www.w3.org/2000/svg" xmlns:xlink="http://www.w3.org/1999/xlink" width="810.77" height="142" viewBox="0 0 810.77 142">
  <defs>
    <linearGradient id="linear-gradient" x1="0.265" y1="0.104" x2="0.808" y2="0.913" gradientUnits="objectBoundingBox">
      <stop offset="0" stop-color="#ff9494"/>
      <stop offset="1" stop-color="#ffcc92"/>
    </linearGradient>
    <filter id="Ellipse_1" x="0" y="10.238" width="131.762" height="131.762" filterUnits="userSpaceOnUse">
      <feOffset dy="3" input="SourceAlpha"/>
      <feGaussianBlur stdDeviation="3" result="blur"/>
      <feFlood flood-color="#fff" flood-opacity="0.161"/>
      <feComposite operator="in" in2="blur"/>
      <feComposite in="SourceGraphic"/>
    </filter>
    <linearGradient id="linear-gradient-2" x1="0.5" x2="0.5" y2="1" gradientUnits="objectBoundingBox">
      <stop offset="0" stop-color="#06af00"/>
      <stop offset="1" stop-color="#32d52c"/>
    </linearGradient>
  </defs>
  <g id="Ecom" transform="translate(-466.23 -797)">
    <g id="Peach" transform="translate(202.23 482.241)">
      <g transform="matrix(1, 0, 0, 1, 264, 314.76)" filter="url(#Ellipse_1)">
        <circle id="Ellipse_1-2" data-name="Ellipse 1" cx="56.881" cy="56.881" r="56.881" transform="translate(9 16.24)" fill="url(#linear-gradient)"/>
      </g>
      <path id="Path_1" data-name="Path 1" d="M38.621,23.091C29.9,25.459,3.215,28.121.136,6.818S47.344,20.724,38.621,23.091Z" transform="matrix(0.978, -0.208, 0.208, 0.978, 273.025, 323.001)" fill="url(#linear-gradient-2)"/>
    </g>
    <rect id="Rectangle_1" data-name="Rectangle 1" width="320" height="120" rx="30" transform="translate(957 814)" fill="#ff8f44"/>
    <path id="Path_2" data-name="Path 2" d="M43.32-84A23.256,23.256,0,0,1,55.2-80.94a21.335,21.335,0,0,1,8.22,8.52,25.526,25.526,0,0,1,2.94,12.3,26.587,26.587,0,0,1-2.94,12.48,22.288,22.288,0,0,1-8.22,8.88,22.257,22.257,0,0,1-11.88,3.24H18.48V-3.6a3.5,3.5,0,0,1-1.02,2.58A3.5,3.5,0,0,1,14.88,0,3.5,3.5,0,0,1,12.3-1.02,3.5,3.5,0,0,1,11.28-3.6V-80.4a3.5,3.5,0,0,1,1.02-2.58A3.5,3.5,0,0,1,14.88-84Zm0,41.52A14.147,14.147,0,0,0,54.6-47.52a18.68,18.68,0,0,0,4.32-12.6q0-7.44-4.32-12.12a14.637,14.637,0,0,0-11.28-4.68H18.48v34.44Zm88.32,8.28a3.262,3.262,0,0,1-1.08,2.46,3.555,3.555,0,0,1-2.52,1.02H82.68a27.729,27.729,0,0,0,2.94,12.9,22.212,22.212,0,0,0,8.4,9,24.46,24.46,0,0,0,12.9,3.3,21.819,21.819,0,0,0,10.32-2.4,21.258,21.258,0,0,0,7.32-6.12,4.058,4.058,0,0,1,2.52-1.08,2.984,2.984,0,0,1,2.16.96A2.984,2.984,0,0,1,130.2-12,3.557,3.557,0,0,1,129-9.48a30.2,30.2,0,0,1-9.66,7.68,26.481,26.481,0,0,1-12.3,3A32.867,32.867,0,0,1,90.72-2.76a28.066,28.066,0,0,1-11.04-11.1,33.458,33.458,0,0,1-3.96-16.5,36.334,36.334,0,0,1,3.9-17.22A28.126,28.126,0,0,1,90-58.86a26.322,26.322,0,0,1,13.8-3.9,28.259,28.259,0,0,1,13.5,3.36,26.577,26.577,0,0,1,10.26,9.84A29.675,29.675,0,0,1,131.64-34.2ZM103.8-55.8A20.108,20.108,0,0,0,90.9-51q-5.94,4.8-7.62,13.8H124.2v-.96a18.929,18.929,0,0,0-3.6-9.42,19.538,19.538,0,0,0-7.5-6.12A21.757,21.757,0,0,0,103.8-55.8Zm93-5.52a3.4,3.4,0,0,1,2.58,1.08,3.7,3.7,0,0,1,1.02,2.64v54a3.5,3.5,0,0,1-1.02,2.58A3.5,3.5,0,0,1,196.8,0a3.5,3.5,0,0,1-2.58-1.02A3.5,3.5,0,0,1,193.2-3.6v-8.04a25.144,25.144,0,0,1-9,9.12A24.354,24.354,0,0,1,171.12,1.2,25.832,25.832,0,0,1,156.66-3a28.865,28.865,0,0,1-10.08-11.52,36.251,36.251,0,0,1-3.66-16.44,35.4,35.4,0,0,1,3.72-16.38,28.507,28.507,0,0,1,10.14-11.34A25.971,25.971,0,0,1,171-62.76a25.838,25.838,0,0,1,13.2,3.48,22.92,22.92,0,0,1,9,9.12V-57.6a3.7,3.7,0,0,1,1.02-2.64A3.4,3.4,0,0,1,196.8-61.32ZM171.84-5.52a19.858,19.858,0,0,0,11.22-3.3,22.357,22.357,0,0,0,7.8-9.12,29.469,29.469,0,0,0,2.82-13.02,28.535,28.535,0,0,0-2.82-12.72,22.44,22.44,0,0,0-7.8-9.06,19.858,19.858,0,0,0-11.22-3.3,20.125,20.125,0,0,0-11.22,3.24,22.089,22.089,0,0,0-7.8,8.94A28.7,28.7,0,0,0,150-30.96a30.008,30.008,0,0,0,2.76,13.02,21.935,21.935,0,0,0,7.74,9.12A20.062,20.062,0,0,0,171.84-5.52Zm73.92-57.24a41.74,41.74,0,0,1,10.5,1.26,22.785,22.785,0,0,1,7.8,3.42Q267-55.92,267-53.4a3.659,3.659,0,0,1-.9,2.4,2.782,2.782,0,0,1-2.22,1.08,3.723,3.723,0,0,1-1.98-.48,9.937,9.937,0,0,1-1.74-1.44,11.908,11.908,0,0,0-3-2.28,19.952,19.952,0,0,0-4.74-1.38,34.876,34.876,0,0,0-6.3-.54,22.562,22.562,0,0,0-12.06,3.36,23.828,23.828,0,0,0-8.58,9.12,26.272,26.272,0,0,0-3.12,12.72,27.632,27.632,0,0,0,3,12.96,22.8,22.8,0,0,0,8.34,9.06,22.692,22.692,0,0,0,12.18,3.3,26.57,26.57,0,0,0,6.9-.72,26.1,26.1,0,0,0,5.1-2.04,25.565,25.565,0,0,0,2.88-2.16,11.379,11.379,0,0,1,1.68-1.26,3.043,3.043,0,0,1,1.56-.42,2.968,2.968,0,0,1,2.28.9,3.292,3.292,0,0,1,.84,2.34q0,2.04-2.88,4.38a25.172,25.172,0,0,1-7.92,4.02A35.134,35.134,0,0,1,245.16,1.2a29.528,29.528,0,0,1-15.6-4.14A28.252,28.252,0,0,1,218.94-14.4a35.3,35.3,0,0,1-3.78-16.44A33.727,33.727,0,0,1,219-46.86a29.78,29.78,0,0,1,10.8-11.58A29.635,29.635,0,0,1,245.76-62.76Zm63.12.96q10.8,0,16.08,6.78t5.28,17.46V-3.6a3.5,3.5,0,0,1-1.02,2.58A3.5,3.5,0,0,1,326.64,0a3.5,3.5,0,0,1-2.58-1.02,3.5,3.5,0,0,1-1.02-2.58V-37.56q0-7.8-3.72-12.66t-11.64-4.86a19.982,19.982,0,0,0-9.54,2.4,20.14,20.14,0,0,0-7.26,6.42,15.069,15.069,0,0,0-2.76,8.7V-3.6a3.5,3.5,0,0,1-1.02,2.58A3.5,3.5,0,0,1,284.52,0a3.5,3.5,0,0,1-2.58-1.02,3.5,3.5,0,0,1-1.02-2.58V-85.2a3.5,3.5,0,0,1,1.02-2.58,3.5,3.5,0,0,1,2.58-1.02,3.5,3.5,0,0,1,2.58,1.02,3.5,3.5,0,0,1,1.02,2.58v35.16a25.131,25.131,0,0,1,9-8.46A23.4,23.4,0,0,1,308.88-61.8Z" transform="translate(603 911)" fill="#ff9494"/>
    <path id="Path_3" data-name="Path 3" d="M12.9,0A4.228,4.228,0,0,1,9.85-1.1,3.828,3.828,0,0,1,8.7-4V-66.5a3.828,3.828,0,0,1,1.15-2.9,4.228,4.228,0,0,1,3.05-1.1H50.3a4.039,4.039,0,0,1,2.8.9,3.191,3.191,0,0,1,1,2.5,3.191,3.191,0,0,1-1,2.5,4.039,4.039,0,0,1-2.8.9H16.8v24.5H48.3a4.039,4.039,0,0,1,2.8.9,3.191,3.191,0,0,1,1,2.5,3.191,3.191,0,0,1-1,2.5,4.039,4.039,0,0,1-2.8.9H16.8V-6.8H50.3a4.2,4.2,0,0,1,2.8.85,3.161,3.161,0,0,1,1,2.55,3.191,3.191,0,0,1-1,2.5,4.039,4.039,0,0,1-2.8.9ZM85.8.7A23.249,23.249,0,0,1,73.75-2.4a20.719,20.719,0,0,1-8.1-8.8A29.147,29.147,0,0,1,62.8-24.4a28.936,28.936,0,0,1,2.95-13.3,21.793,21.793,0,0,1,8.25-9,23.137,23.137,0,0,1,12.2-3.2,27.881,27.881,0,0,1,7.55,1.05,20.817,20.817,0,0,1,6.55,3.05,8.877,8.877,0,0,1,2.55,2.35,4.57,4.57,0,0,1,.75,2.55,3.472,3.472,0,0,1-.75,2.3,2.419,2.419,0,0,1-1.95.9,3.372,3.372,0,0,1-1.5-.4,9.632,9.632,0,0,1-1.35-.8,6.861,6.861,0,0,0-.75-.5,32.111,32.111,0,0,0-4.95-2.7,14.685,14.685,0,0,0-5.75-1q-7.3,0-11.35,4.95T71.2-24.4q0,8.8,4.05,13.6T86.6-6a15.451,15.451,0,0,0,5.85-1A26.96,26.96,0,0,0,97.4-9.7a23.563,23.563,0,0,1,2.1-1.2,3.967,3.967,0,0,1,1.7-.5,2.318,2.318,0,0,1,1.85.9,3.472,3.472,0,0,1,.75,2.3,4.143,4.143,0,0,1-.7,2.35,9.773,9.773,0,0,1-2.6,2.35A23.8,23.8,0,0,1,93.75-.45,28.311,28.311,0,0,1,85.8.7Zm48,0a23.445,23.445,0,0,1-12.15-3.1,20.659,20.659,0,0,1-8.1-8.85A29.7,29.7,0,0,1,110.7-24.6a29.7,29.7,0,0,1,2.85-13.35,20.659,20.659,0,0,1,8.1-8.85,23.445,23.445,0,0,1,12.15-3.1A23.714,23.714,0,0,1,146-46.8a20.565,20.565,0,0,1,8.15,8.85A29.7,29.7,0,0,1,157-24.6a29.7,29.7,0,0,1-2.85,13.35A20.565,20.565,0,0,1,146-2.4,23.714,23.714,0,0,1,133.8.7Zm0-6.7q7.2,0,11.05-4.75T148.7-24.6q0-8.9-3.9-13.75t-11-4.85q-7.1,0-11,4.85T118.9-24.6q0,9,3.85,13.8T133.8-6Zm89.5-43.9q16.2,0,16.2,19.3V-3.5a3.884,3.884,0,0,1-1.1,2.95A4.026,4.026,0,0,1,235.5.5a4.205,4.205,0,0,1-2.95-1.05A3.793,3.793,0,0,1,231.4-3.5V-30.4q0-6.7-2.4-9.7t-7.5-3a11.955,11.955,0,0,0-9.6,4.1q-3.5,4.1-3.5,11.1V-3.5a3.793,3.793,0,0,1-1.15,2.95A4.206,4.206,0,0,1,204.3.5a4.025,4.025,0,0,1-2.9-1.05,3.884,3.884,0,0,1-1.1-2.95V-30.4q0-6.7-2.4-9.7t-7.6-3a11.99,11.99,0,0,0-9.55,4.1q-3.55,4.1-3.55,11.1V-3.5a3.884,3.884,0,0,1-1.1,2.95A4.025,4.025,0,0,1,173.2.5a4.206,4.206,0,0,1-2.95-1.05A3.793,3.793,0,0,1,169.1-3.5V-45.7a3.828,3.828,0,0,1,1.15-2.9,4.093,4.093,0,0,1,2.95-1.1,3.891,3.891,0,0,1,2.8,1.05,3.754,3.754,0,0,1,1.1,2.85V-41a15.819,15.819,0,0,1,6.1-6.6,17.383,17.383,0,0,1,9-2.3q11.4,0,14.9,9.6a16.2,16.2,0,0,1,6.4-7A18.564,18.564,0,0,1,223.3-49.9Z" transform="translate(994 907)" fill="#fff"/>
  </g>
</svg>
